# xmcd
#
# Track frame offsets:
#  201
#  16384
#  29826
#  41717
#  54428
#  67937
#  84465
#  97249
#  107149
#  120319
#
# Disc length: 1839 seconds
#
# Revision: 0
# Processed by: cddbd v1.5.1PL0 Copyright (c) Steve Scherf et al.
# Submitted via: Collectorz.com_Music_Collector 6.9
#
DISCID=82072d0a
DTITLE=Merle Haggard - Misery and Gin
DYEAR=1997
DGENRE=Country
TTITLE0=It's All In The Movies
TTITLE1=The Farmer's Daughter
TTITLE2=From Graceland To The Promised Land
TTITLE3=I'm Always On A Mountain When I Fall
TTITLE4=The Way I Am
TTITLE5=Ramblin' Fever
TTITLE6=It's Been A Great Afternoon
TTITLE7=Mama Tried
TTITLE8=Misery and Gin
TTITLE9=I Think I'll Just Stay Here And Drink
EXTD=
EXTT0=
EXTT1=
EXTT2=
EXTT3=
EXTT4=
EXTT5=
EXTT6=
EXTT7=
EXTT8=
EXTT9=
PLAYORDER=
